# xmcd CD database file
#
# Track frame offsets:
#	150
#	2023
#	33020
#	54844
#	80736
#	99207
#	115599
#	142620
#	147363
#	180044
#	219516
#	245799
#	276316
#	301466
#	329354
#
# Disc length: 4613 seconds
#
# Revision: 0
# Processed by: cddbd v1.5.2PL0 Copyright (c) Steve Scherf et al.
# Submitted via: CDex 1.70beta2
#
DISCID=bd12030f
DTITLE=Human Element - Human Element
DYEAR=2011
DGENRE=Jazz
TTITLE0=Introduction
TTITLE1=Izzy
TTITLE2=The Human Element
TTITLE3=Speak With Your Eye
TTITLE4=Onno
TTITLE5=Hi Lao
TTITLE6=Cut
TTITLE7=Listen With Your Mouth
TTITLE8=Essaouira
TTITLE9=Crazy Girl
TTITLE10=See With Your Ear
TTITLE11=Shake It!
TTITLE12=Bottom Of The Mirror
TTITLE13=Think About It
TTITLE14=February 14th
EXTD=YEAR: 2011
EXTT0=
EXTT1=
EXTT2=
EXTT3=
EXTT4=
EXTT5=
EXTT6=
EXTT7=
EXTT8=
EXTT9=
EXTT10=
EXTT11=
EXTT12=
EXTT13=
EXTT14=
PLAYORDER=
